<svg width="50" height="50" viewBox="0 0 50 50" fill="none" xmlns="http://www.w3.org/2000/svg">
<mask id="mask0_4_22" style="mask-type:alpha" maskUnits="userSpaceOnUse" x="0" y="0" width="50" height="50">
<rect width="49.2822" height="49.2822" fill="#D9D9D9"/>
</mask>
<g mask="url(#mask0_4_22)">
<path d="M24.6411 45.1753C21.8348 45.1753 19.1824 44.6363 16.6841 43.5583C14.1858 42.4802 12.004 41.0086 10.1388 39.1434C8.27361 37.2782 6.80199 35.0964 5.72394 32.5981C4.6459 30.0998 4.10687 27.4474 4.10687 24.6411C4.10687 21.8005 4.6459 19.1396 5.72394 16.6584C6.80199 14.1772 8.27361 12.004 10.1388 10.1388C12.004 8.2736 14.1858 6.80198 16.6841 5.72393C19.1824 4.64588 21.8348 4.10686 24.6411 4.10686C25.7363 4.10686 26.7886 4.18386 27.7982 4.33787C28.8078 4.49188 29.8089 4.72289 30.8014 5.0309V10.2671C30.8014 11.3965 30.3993 12.3633 29.595 13.1676C28.7907 13.9718 27.8239 14.374 26.6945 14.374H22.5877V18.4808C22.5877 19.0626 22.3909 19.5503 21.9973 19.9439C21.6038 20.3375 21.1161 20.5342 20.5343 20.5342H16.4274V24.6411H28.748C29.3298 24.6411 29.8174 24.8379 30.211 25.2315C30.6046 25.625 30.8014 26.1127 30.8014 26.6945V32.8548H32.8548C33.7788 32.8548 34.5917 33.1286 35.2932 33.6762C35.9948 34.2237 36.4825 34.9082 36.7563 35.7296C38.091 34.2237 39.1434 32.5382 39.9134 30.673C40.6835 28.8078 41.0685 26.7972 41.0685 24.6411C41.0685 24.2646 41.0514 23.9224 41.0172 23.6144C40.9829 23.3064 40.9316 22.9641 40.8632 22.5877H45.0727C45.1411 22.9641 45.1753 23.3064 45.1753 23.6144V24.6411C45.1753 27.4474 44.6363 30.0998 43.5583 32.5981C42.4802 35.0964 41.0086 37.2782 39.1434 39.1434C37.2782 41.0086 35.105 42.4802 32.6238 43.5583C30.1426 44.6363 27.4817 45.1753 24.6411 45.1753ZM22.5877 40.9658V36.9616C21.4583 36.9616 20.4915 36.5595 19.6872 35.7553C18.883 34.951 18.4808 33.9842 18.4808 32.8548V30.8014L8.6244 20.9449C8.52173 21.561 8.42762 22.177 8.34206 22.793C8.2565 23.409 8.21372 24.0251 8.21372 24.6411C8.21372 28.8848 9.59123 32.5382 12.3462 35.6012C15.1012 38.6643 18.5151 40.4525 22.5877 40.9658ZM36.9617 18.4808C36.3798 18.4808 35.8922 18.284 35.4986 17.8905C35.105 17.4969 34.9082 17.0092 34.9082 16.4274V10.2671C34.9082 9.68533 35.105 9.19764 35.4986 8.80407C35.8922 8.41049 36.3798 8.21371 36.9617 8.21371V6.16028C36.9617 5.0309 37.3638 4.06408 38.168 3.25982C38.9723 2.45557 39.9391 2.05344 41.0685 2.05344C42.1979 2.05344 43.1647 2.45557 43.969 3.25982C44.7732 4.06408 45.1753 5.0309 45.1753 6.16028V8.21371C45.7571 8.21371 46.2448 8.41049 46.6384 8.80407C47.032 9.19764 47.2288 9.68533 47.2288 10.2671V16.4274C47.2288 17.0092 47.032 17.4969 46.6384 17.8905C46.2448 18.284 45.7571 18.4808 45.1753 18.4808H36.9617ZM39.0151 8.21371H43.1219V6.16028C43.1219 5.57848 42.9251 5.09079 42.5316 4.69722C42.138 4.30365 41.6503 4.10686 41.0685 4.10686C40.4867 4.10686 39.999 4.30365 39.6054 4.69722C39.2119 5.09079 39.0151 5.57848 39.0151 6.16028V8.21371Z" fill="#4E6443"/>
</g>
</svg>
