<svg width="50" height="50" viewBox="0 0 50 50" fill="none" xmlns="http://www.w3.org/2000/svg">
<mask id="mask0_4_34" style="mask-type:alpha" maskUnits="userSpaceOnUse" x="0" y="0" width="50" height="50">
<rect width="49.28" height="49.28" fill="#D9D9D9"/>
</mask>
<g mask="url(#mask0_4_34)">
<path d="M45.1733 12.32V36.96C45.1733 38.0893 44.7712 39.0561 43.967 39.8603C43.1628 40.6645 42.196 41.0667 41.0667 41.0667H8.21333C7.08399 41.0667 6.11721 40.6645 5.31299 39.8603C4.50877 39.0561 4.10666 38.0893 4.10666 36.96V12.32C4.10666 11.1907 4.50877 10.2239 5.31299 9.41965C6.11721 8.61543 7.08399 8.21332 8.21333 8.21332H41.0667C42.196 8.21332 43.1628 8.61543 43.967 9.41965C44.7712 10.2239 45.1733 11.1907 45.1733 12.32ZM8.21333 16.4267H41.0667V12.32H8.21333V16.4267ZM8.21333 24.64V36.96H41.0667V24.64H8.21333Z" fill="#4E6443"/>
</g>
</svg>
