<svg width="50" height="50" viewBox="0 0 50 50" fill="none" xmlns="http://www.w3.org/2000/svg">
<mask id="mask0_4_46" style="mask-type:alpha" maskUnits="userSpaceOnUse" x="0" y="0" width="50" height="50">
<rect width="49.28" height="49.28" fill="#D9D9D9"/>
</mask>
<g mask="url(#mask0_4_46)">
<path d="M18.48 29.7733V26.6933H30.8V29.7733H18.48ZM16.4267 23.6133V20.5333H32.8533V23.6133H16.4267ZM14.3733 47.2267C13.244 47.2267 12.2772 46.8246 11.473 46.0203C10.6688 45.2161 10.2667 44.2493 10.2667 43.12V6.16001C10.2667 5.03068 10.6688 4.0639 11.473 3.25968C12.2772 2.45546 13.244 2.05334 14.3733 2.05334H34.9067C36.036 2.05334 37.0028 2.45546 37.807 3.25968C38.6112 4.0639 39.0133 5.03068 39.0133 6.16001V43.12C39.0133 44.2493 38.6112 45.2161 37.807 46.0203C37.0028 46.8246 36.036 47.2267 34.9067 47.2267H14.3733ZM14.3733 41.0667V43.12H34.9067V41.0667H14.3733ZM14.3733 36.96H34.9067V12.32H14.3733V36.96ZM14.3733 8.21334H34.9067V6.16001H14.3733V8.21334Z" fill="#4E6443"/>
</g>
</svg>
